<svg width="1200" height="900" viewBox="0 0 1200 900" fill="none" xmlns="http://www.w3.org/2000/svg">
  <defs>
    <linearGradient id="veil-bg" x1="116" y1="88" x2="1068" y2="824" gradientUnits="userSpaceOnUse">
      <stop stop-color="#140E23"/>
      <stop offset="0.42" stop-color="#64439B"/>
      <stop offset="1" stop-color="#F8A970"/>
    </linearGradient>
    <radialGradient id="veil-flare" cx="0" cy="0" r="1" gradientUnits="userSpaceOnUse" gradientTransform="translate(844 234) rotate(90) scale(244 310)">
      <stop stop-color="#FFE5BA"/>
      <stop offset="0.4" stop-color="#E98E65"/>
      <stop offset="1" stop-color="#7A4AA8" stop-opacity="0"/>
    </radialGradient>
  </defs>
  <rect x="36" y="36" width="1128" height="828" rx="18" fill="url(#veil-bg)"/>
  <circle cx="844" cy="234" r="222" fill="url(#veil-flare)"/>
  <path d="M0 666C126 550 260 494 402 498C610 502 760 648 948 648C1046 648 1118 624 1200 582V900H0V666Z" fill="#28173C" opacity="0.86"/>
  <path d="M0 724C164 620 316 578 456 592C624 610 772 718 936 718C1032 718 1114 688 1200 632V900H0V724Z" fill="#FBAD79" fill-opacity="0.26"/>
</svg>
