<svg width="1200" height="900" viewBox="0 0 1200 900" fill="none" xmlns="http://www.w3.org/2000/svg">
  <defs>
    <linearGradient id="tidal-bg" x1="72" y1="96" x2="1094" y2="834" gradientUnits="userSpaceOnUse">
      <stop stop-color="#062A32"/>
      <stop offset="0.52" stop-color="#0E7682"/>
      <stop offset="1" stop-color="#80D4CF"/>
    </linearGradient>
  </defs>
  <rect x="36" y="36" width="1128" height="828" rx="18" fill="url(#tidal-bg)"/>
  <path d="M126 770C232 598 360 486 514 432C668 378 852 374 1066 418V864H126V770Z" fill="#08353D" opacity="0.92"/>
  <path d="M146 744C286 570 446 470 626 442C768 420 918 430 1080 482V864H152L146 744Z" fill="#9AE3DD" opacity="0.55"/>
  <g stroke="#D8FFF8" stroke-width="2" opacity="0.4">
    <path d="M120 160H1084"/>
    <path d="M120 276H1084"/>
    <path d="M120 392H1084"/>
    <path d="M120 508H1084"/>
    <path d="M120 624H1084"/>
    <path d="M120 740H1084"/>
    <path d="M214 108V804"/>
    <path d="M420 108V804"/>
    <path d="M626 108V804"/>
    <path d="M832 108V804"/>
    <path d="M1038 108V804"/>
  </g>
  <circle cx="868" cy="222" r="124" fill="#E5FFFC" fill-opacity="0.14"/>
</svg>
